HIERARCHY
ROOT Hips
{
  OFFSET -4.60379 99.4982 -50.148
  CHANNELS 6 Xposition Yposition Zposition Zrotation Xrotation Yrotation
  JOINT RightUpLeg
  {
    OFFSET -8.9458 -8.66707 0.101652
    CHANNELS 3 Zrotation Xrotation Yrotation
    JOINT RightLeg
    {
      OFFSET 0 -44.4227 1.3727
      CHANNELS 3 Zrotation Xrotation Yrotation
      JOINT RightFoot
      {
        OFFSET 0.253549 -42.0924 -1.46059
        CHANNELS 3 Zrotation Xrotation Yrotation
        JOINT RightToes
        {
          OFFSET 0.04 -4.41509 8.4991
          CHANNELS 3 Zrotation Xrotation Yrotation
          End Site
          {
            OFFSET -0.08 -0.137448 9.77979
          }
        }
      }
    }
  }
  JOINT Spine
  {
    OFFSET 0 11.8905 0
    CHANNELS 3 Zrotation Xrotation Yrotation
    JOINT Spine1
    {
      OFFSET 0 25.6574 0.127663
      CHANNELS 3 Zrotation Xrotation Yrotation
      JOINT HEad
      {
        OFFSET 0 8.73416 0.011341
        CHANNELS 3 Zrotation Xrotation Yrotation
        End Site
        {
          OFFSET -0.29 12.7742 2.51395
        }
      }
      JOINT LeftShoulder1
      {
        OFFSET 8.99 -0.362252 -0.22
        CHANNELS 3 Zrotation Xrotation Yrotation
        JOINT LeftArm
        {
          OFFSET 10.2827 -0.00338 0.322123
          CHANNELS 3 Zrotation Xrotation Yrotation
          JOINT LeftForeArm
          {
            OFFSET 32.7669 0.099144 -1.42434
            CHANNELS 3 Zrotation Xrotation Yrotation
            JOINT LeftHand
            {
              OFFSET 27.5643 0.085362 1.02216
              CHANNELS 3 Zrotation Xrotation Yrotation
              End Site
              {
                OFFSET 16.7443 -0.6 1.50291
              }
            }
          }
        }
      }
      JOINT RightShoulder
      {
        OFFSET -8.99 -0.362252 -0.22
        CHANNELS 3 Zrotation Xrotation Yrotation
        JOINT RightArm
        {
          OFFSET -10.2827 -0.00338 0.322123
          CHANNELS 3 Zrotation Xrotation Yrotation
          JOINT RightForeArm
          {
            OFFSET -32.8971 0.099144 -1.42434
            CHANNELS 3 Zrotation Xrotation Yrotation
            JOINT RightHand
            {
              OFFSET -27.4921 0.085362 1.02216
              CHANNELS 3 Zrotation Xrotation Yrotation
              End Site
              {
                OFFSET -16.6312 -0.6 1.50291
              }
            }
          }
        }
      }
    }
  }
  JOINT LeftUpLeg
  {
    OFFSET 8.9458 -8.66707 0.101652
    CHANNELS 3 Zrotation Xrotation Yrotation
    JOINT LeftLeg
    {
      OFFSET 0 -44.4227 1.3727
      CHANNELS 3 Zrotation Xrotation Yrotation
      JOINT LeftFoot
      {
        OFFSET -0.253549 -42.0924 -1.46059
        CHANNELS 3 Zrotation Xrotation Yrotation
        JOINT LeftToes
        {
          OFFSET -0.04 -4.41509 8.4991
          CHANNELS 3 Zrotation Xrotation Yrotation
          End Site
          {
            OFFSET 0.08 -0.047448 9.77979
          }
        }
      }
    }
  }
}
MOTION
Frames:	19
Frame Time:	0.0166667
6.81469 101.134 193.578 -5.47098 -0.146655 179.266 -6.6568 -0.258819 0.536593 -2.29527 40.1286 -9.7303 8.85877 -2.79882 -0.164479 0.0462048 0.000533964 0.662642 -2.9842 3.52689 -1.60521 -8.88412 -4.91119 -0.715642 3.73713 13.316 2.58894 -9.69075e-016 1.98785e-016 3.97569e-016 -82.8959 -33.6837 -8.39814 -20.6746 12.4802 -2.22036 0.368473 9.90896 -0.00117926 3.5897 0.649933 2.0888 91.8616 -22.9144 14.1239 20.4827 11.5996 -2.37366 -0.369625 9.91382 0.00119886 -6.59292 -17.0779 0.666384 -0.0966646 14.5682 16.0143 -0.265628 -0.871833 0.121605 1.37216e-011 4.61832e-011 -1.60046e-011 
6.36184 101.116 192.337 -5.59007 -0.23028 178.917 -6.76364 -2.66212 -0.212627 -3.54424 44.4748 -8.85693 8.85612 -1.48362 -0.259065 1.2435 4.46464 -2.59055 -3.5055 3.60904 -1.54407 -9.02541 -4.90146 -0.707704 3.87294 13.1279 2.69264 -8.44835e-016 1.98785e-016 7.95139e-016 -83.1036 -33.1437 -8.94505 -20.7138 12.5468 -2.58379 0.368473 9.90896 -0.00117926 3.64155 0.609125 1.71858 91.6627 -23.0212 13.7692 20.5729 11.526 -2.71199 -0.369625 9.91382 0.00119886 -7.11777 -16.8072 -0.264118 -0.110055 15.4367 16.9512 -0.290352 -1.84472 0.136195 -0.494209 0.00886978 0.640346 
5.93114 101.115 191.107 -5.67953 -0.29407 178.592 -6.85584 -4.977 -0.735525 -4.73025 48.5278 -8.65431 8.68144 -0.581981 -0.322391 3.3251 7.77626 -5.90433 -3.9629 3.64815 -1.49636 -9.16395 -4.83095 -0.696588 4.01002 12.918 2.7628 2.51587e-016 0 3.97569e-016 -83.2688 -32.4967 -9.53251 -20.7458 12.6121 -2.93769 0.368473 9.90896 -0.00117926 3.81591 0.583095 1.42955 91.3599 -23.175 13.4537 20.6467 11.4597 -3.01988 -0.369625 9.91382 0.00119886 -7.53324 -16.4694 -0.878604 -0.16372 16.2106 17.6161 -0.351599 -2.8132 0.146869 -0.904784 -0.0396747 1.1462 
5.55919 101.169 189.911 -5.68221 -0.306374 178.307 -6.73645 -7.07722 -0.581934 -5.02662 51.8187 -11.0015 7.95328 -0.890127 -0.291568 6.91114 7.83677 -9.53721 -4.24316 3.54496 -1.48384 -9.28237 -4.58788 -0.675779 4.14934 12.6285 2.74121 7.29912e-017 -1.49089e-016 -0 -83.2591 -31.5035 -10.1656 -20.819 12.6808 -3.3095 0.368473 9.90896 -0.00117926 4.36414 0.609616 1.44084 90.704 -23.4675 13.2435 20.6943 11.4151 -3.22697 -0.369625 9.91382 0.00119886 -7.65736 -15.958 -0.55881 -0.259144 16.7528 17.4397 -0.525014 -3.79118 0.14656 -1.06512 -0.201352 1.27802 
5.22482 101.24 188.732 -5.64459 -0.282972 178.107 -6.50204 -8.99164 -0.175196 -4.52427 54.3613 -14.2467 7.10273 -1.67354 -0.230174 10.3442 6.5092 -12.6197 -4.42927 3.42508 -1.49492 -9.42229 -4.26432 -0.652182 4.28777 12.3449 2.66951 1.99018e-015 -2.48481e-017 -0 -83.3092 -30.46 -10.9989 -20.7642 12.7348 -3.57799 0.368473 9.90896 -0.00117926 5.02549 0.634747 1.41989 90.0302 -23.8151 13.1001 20.6854 11.3796 -3.42362 -0.369625 9.91382 0.00119886 -7.67771 -15.3468 0.0817441 -0.351573 17.1751 16.9689 -0.733074 -4.71931 0.140543 -1.13859 -0.53863 1.21649 
4.92515 101.309 187.559 -5.59798 -0.223487 178.055 -6.26358 -10.6909 0.215052 -3.84944 56.1626 -16.656 6.4319 -2.40734 -0.18711 12.4829 4.97375 -14.2267 -4.54669 3.41144 -1.53365 -9.65367 -3.91715 -0.632627 4.41938 12.1024 2.58232 2.40716e-015 -1.49089e-016 3.97569e-016 -83.6783 -29.675 -12.2889 -20.3464 12.7479 -3.56101 0.368473 9.90896 -0.00117926 5.59722 0.611507 1.06182 89.6834 -24.1724 13.0385 20.5449 11.3451 -3.70521 -0.369625 9.91382 0.00119886 -7.69403 -14.6486 0.665334 -0.432592 17.5056 16.5636 -0.911752 -5.52542 0.131384 -1.27049 -1.16988 1.08893 
4.64199 101.36 186.403 -5.533 -0.144697 178.116 -5.98556 -12.2211 0.564043 -3.05805 57.2771 -18.4506 5.94763 -3.25881 -0.143473 13.9383 3.14051 -15.0105 -4.65499 3.41295 -1.57478 -9.8735 -3.54004 -0.610743 4.55628 11.9931 2.44162 -1.22998e-015 9.93923e-017 -0 -84.169 -28.8466 -13.7282 -19.814 12.7498 -3.46819 0.368473 9.90896 -0.00117926 6.15524 0.556639 0.502872 89.3894 -24.5141 12.9657 20.3962 11.3114 -3.98607 -0.369625 9.91382 0.00119886 -7.73354 -13.9402 1.11884 -0.476352 17.8341 16.2432 -1.09515 -6.26189 0.120124 -1.35843 -1.98327 0.815951 
4.34853 101.367 185.275 -5.44336 -0.049447 178.29 -5.67002 -13.6037 0.74463 -2.32996 57.7552 -19.1555 5.80251 -4.23459 -0.0975063 14.9159 1.2574 -15.2233 -4.84575 3.36676 -1.58207 -9.96759 -3.10592 -0.576714 4.69334 12.1815 2.20446 8.32411e-016 0 -3.97569e-016 -84.6987 -27.7165 -15.1132 -19.3382 12.759 -3.4374 0.368473 9.90896 -0.00117926 6.72056 0.461093 -0.291524 88.9571 -24.7947 12.7965 20.3429 11.272 -4.23032 -0.369625 9.91382 0.00119886 -7.85981 -13.3106 1.15178 -0.441927 18.2903 16.2103 -1.30585 -6.94253 0.1093 -1.47771 -3.02375 0.460674 
4.06775 101.352 184.165 -5.35225 0.0208824 178.532 -5.36804 -14.8859 0.781841 -1.69664 57.6138 -19.2973 5.86201 -5.29174 -0.0465602 15.6193 -0.599286 -15.1186 -5.04855 3.31112 -1.59248 -10.0398 -2.73387 -0.547708 4.88411 12.4865 1.91875 -1.56543e-015 0 -0 -85.1591 -26.5057 -16.395 -18.9154 12.7818 -3.50217 0.368473 9.90896 -0.00117926 7.25181 0.355284 -1.11381 88.4736 -25.029 12.5168 20.3699 11.2385 -4.38406 -0.369625 9.91382 0.00119886 -8.00942 -12.7398 1.05155 -0.373087 18.785 16.282 -1.5139 -7.61093 0.0970525 -1.26018 -3.93879 -0.279104 
3.81432 101.335 183.065 -5.27911 0.00646451 178.807 -5.13979 -16.1457 0.619115 -1.09267 56.8298 -19.3918 6.07625 -6.36908 0.0126808 16.2638 -2.2956 -15.004 -5.20307 3.26901 -1.64053 -10.1794 -2.58175 -0.543319 5.21799 12.8054 1.62894 2.68359e-015 -3.97569e-016 3.97569e-016 -85.4201 -25.3574 -17.4462 -18.5886 12.8315 -3.74951 0.368473 9.90896 -0.00117926 7.71328 0.271318 -1.72946 87.9494 -25.2051 12.0311 20.5293 11.227 -4.3221 -0.369625 9.91382 0.00119886 -8.15099 -12.2451 1.01427 -0.288729 19.2608 16.3675 -1.70529 -8.31667 0.0813587 0.108056 -4.20584 -2.18715 
3.58639 101.299 181.975 -5.22454 -0.0403391 179.086 -4.95684 -17.3117 0.371799 -0.552807 55.4706 -19.3927 6.34439 -7.52796 0.080188 16.8406 -3.71529 -14.9293 -5.37075 3.22341 -1.69732 -10.3136 -2.50623 -0.546237 5.57395 13.068 1.30395 -1.86361e-017 -1.98785e-016 -3.97569e-016 -85.5674 -24.2443 -18.3397 -18.3884 12.9051 -4.15723 0.368473 9.90896 -0.00117926 8.12034 0.195435 -2.25407 87.4228 -25.3548 11.498 20.7246 11.2176 -4.22263 -0.369625 9.91382 0.00119886 -8.29323 -11.8021 1.01305 -0.208825 19.7545 16.3875 -1.8552 -9.05548 0.0652158 1.24665 -4.37116 -3.75474 
3.39066 101.229 180.89 -5.2 -0.0857781 179.33 -4.79494 -18.3291 0.154539 -0.0951955 53.576 -19.4232 6.54336 -8.98758 0.168163 17.4372 -4.51959 -15.1816 -5.61379 3.16551 -1.74048 -10.3903 -2.4109 -0.544671 5.84099 13.1669 0.883594 2.07481e-015 1.98785e-016 -3.97569e-016 -85.6296 -23.1647 -19.0843 -18.3913 13.0059 -4.75501 0.368473 9.90896 -0.00117926 8.47333 0.117957 -2.76332 86.9191 -25.4946 11.0531 20.8861 11.194 -4.22515 -0.369625 9.91382 0.00119886 -8.4326 -11.4045 1.1331 -0.159678 20.3093 16.1212 -1.91885 -9.87856 0.050635 0.506372 -4.88504 -3.08148 
3.21612 101.14 179.811 -5.19495 -0.133769 179.535 -4.65611 -19.2261 -0.0755908 0.289477 51.2077 -19.514 6.69162 -10.2131 0.243677 17.914 -5.22387 -15.3453 -5.86938 3.09365 -1.78495 -10.4376 -2.31282 -0.541776 6.06774 13.1095 0.501863 -4.58447e-015 1.98785e-016 -0 -85.639 -22.1765 -19.7367 -18.4992 13.1259 -5.47483 0.368473 9.90896 -0.00117926 8.77958 0.0586147 -3.14244 86.4903 -25.6654 10.6717 20.9843 11.1621 -4.32049 -0.369625 9.91382 0.00119886 -8.57915 -11.0162 1.23339 -0.122468 20.854 15.8968 -1.94166 -10.6691 0.0386146 -0.485384 -5.54466 -2.1256 
3.05438 101.039 178.742 -5.19867 -0.17887 179.693 -4.53693 -20.0174 -0.341387 0.572821 48.4334 -19.7362 6.72312 -10.5518 0.263743 18.0862 -6.37828 -14.9282 -6.09388 2.99962 -1.8397 -10.4683 -2.17753 -0.534941 6.28707 12.8049 0.287611 2.09345e-015 3.97569e-016 -3.97569e-016 -85.6309 -21.3293 -20.3709 -18.635 13.265 -6.29089 0.368473 9.90896 -0.00117926 9.09362 0.0401605 -3.26288 86.1892 -25.9403 10.3971 20.9377 11.1157 -4.60084 -0.369625 9.91382 0.00119886 -8.73297 -10.6057 1.16751 -0.0872598 21.3252 16.1289 -1.97588 -11.2844 0.0306676 -0.245209 -6.36743 -2.86453 
2.90422 100.93 177.664 -5.22387 -0.215407 179.78 -4.43062 -20.6884 -0.58849 0.772116 45.2825 -20.042 6.74992 -10.5766 0.267139 18.2605 -7.56249 -14.4726 -6.29222 2.89427 -1.90021 -10.4765 -2.06319 -0.529684 6.43585 12.4435 0.196095 2.92586e-015 1.98785e-016 -7.95139e-016 -85.6142 -20.6399 -20.9314 -18.814 13.4044 -7.10585 0.368473 9.90896 -0.00117926 9.27642 0.0436738 -3.24168 86.0356 -26.2402 10.1603 20.8322 11.074 -4.90148 -0.369625 9.91382 0.00119886 -8.90626 -10.1527 1.03967 -0.0992738 21.7356 16.3505 -1.95555 -11.8537 0.0273891 -0.20132 -7.13662 -3.35834 
2.76221 100.826 176.551 -5.29775 -0.246727 179.743 -4.34535 -21.2537 -0.715343 0.995984 41.7761 -20.5898 6.88387 -10.6843 0.282118 18.8332 -8.64711 -14.5058 -6.45362 2.78674 -1.97113 -10.475 -2.05746 -0.53524 6.44721 12.2051 0.248906 -2.54693e-016 1.98785e-016 -3.97569e-016 -85.6027 -20.197 -21.3524 -19.0367 13.5287 -7.81836 0.368473 9.90896 -0.00117926 9.13939 0.0595041 -3.14359 86.1006 -26.4789 9.87295 20.7597 11.0596 -5.03719 -0.369625 9.91382 0.00119886 -9.11925 -9.62692 0.939525 -0.220024 22.0798 16.0129 -1.84622 -12.5347 0.025667 -1.58334 -7.42828 -1.67943 
2.62652 100.71 175.421 -5.36631 -0.240337 179.661 -4.222 -21.6417 -0.882178 0.962857 38.0104 -20.8619 7.06842 -10.7503 0.298966 19.2078 -9.27503 -14.5751 -6.58148 2.67389 -2.03403 -10.4198 -2.03732 -0.537835 6.37741 12.0298 0.37313 -1.32316e-015 0 -3.97569e-016 -85.6227 -19.8315 -21.7388 -19.2791 13.6348 -8.41254 0.368473 9.90896 -0.00117926 8.88317 0.0827099 -2.99688 86.2841 -26.7485 9.63633 20.6243 11.0568 -5.1622 -0.369625 9.91382 0.00119886 -9.35335 -9.0261 0.763253 -0.342034 22.3614 15.7582 -1.60556 -13.1006 0.0381634 -3.23261 -7.88915 0.26444 
2.49249 100.566 174.287 -5.37089 -0.139047 179.607 -3.988 -21.7312 -1.30695 0.518058 34.0142 -20.3058 7.30439 -10.822 0.321694 18.7612 -8.85705 -14.3087 -6.67718 2.55125 -2.06438 -10.2472 -1.85454 -0.520724 6.2516 11.9333 0.484238 3.29237e-016 1.98785e-016 -0 -85.7083 -19.3552 -22.2259 -19.5228 13.7094 -8.801 0.368473 9.90896 -0.00117926 8.66076 0.105774 -2.84712 86.5246 -27.1379 9.56089 20.3228 11.0551 -5.40792 -0.369625 9.91382 0.00119886 -9.59584 -8.3122 0.388497 -0.364481 22.5659 16.227 -1.13846 -13.2772 0.082814 -4.21309 -9.24431 0.84305 
2.36509 100.409 173.136 -5.35122 -0.0202935 179.54 -3.70129 -21.6823 -1.71798 0.0474265 29.8982 -19.577 7.53155 -10.7806 0.337381 18.0255 -7.97317 -13.9808 -6.7354 2.43199 -2.08514 -10.0299 -1.67236 -0.502083 6.08906 11.8688 0.640248 -2.14315e-015 3.97569e-016 -1.19271e-015 -85.8167 -18.9201 -22.6524 -19.754 13.7695 -9.09626 0.368473 9.90896 -0.00117926 8.42672 0.126757 -2.7071 86.7808 -27.5727 9.5335 19.9678 11.0602 -5.6575 -0.369625 9.91382 0.00119886 -9.83167 -7.56122 -0.0369472 -0.37328 22.7349 16.8931 -0.568432 -13.3641 0.140758 -5.11738 -10.8884 1.1484 
